<?xml version="1.0" encoding="utf-8"?>
<!-- Generator: Adobe Illustrator 25.3.1, SVG Export Plug-In . SVG Version: 6.00 Build 0)  -->
<svg version="1.1" id="图层_1" xmlns="http://www.w3.org/2000/svg" xmlns:xlink="http://www.w3.org/1999/xlink" x="0px" y="0px"
	 viewBox="0 0 1000 1000" style="enable-background:new 0 0 1000 1000;" xml:space="preserve">
<style type="text/css">
	.st0{fill:url(#SVGID_1_);}
	.st1{fill:#B7BCBF;}
	.st2{fill:url(#SVGID_2_);}
	.st3{fill:#FFFFFF;}
	.st4{fill:url(#SVGID_3_);}
</style>
<g>
	<linearGradient id="SVGID_1_" gradientUnits="userSpaceOnUse" x1="499.9999" y1="873.0002" x2="499.9999" y2="127.0002">
		<stop  offset="0" style="stop-color:#000000"/>
		<stop  offset="1" style="stop-color:#151718"/>
	</linearGradient>
	<path class="st0" d="M245.94,873C180.36,873,127,819.64,127,754.06V245.94C127,180.36,180.36,127,245.94,127h508.12
		C819.64,127,873,180.36,873,245.94v508.12C873,819.64,819.64,873,754.06,873H245.94z"/>
	<path class="st1" d="M754.06,135C815.33,135,865,184.67,865,245.94v508.12C865,815.33,815.33,865,754.06,865H245.94
		C184.67,865,135,815.33,135,754.06V245.94C135,184.67,184.67,135,245.94,135H754.06 M754.06,119H245.94
		c-33.91,0-65.78,13.2-89.76,37.18S119,212.03,119,245.94v508.12c0,33.91,13.2,65.78,37.18,89.76
		C180.16,867.8,212.03,881,245.94,881h508.12c33.91,0,65.78-13.2,89.76-37.18C867.8,819.84,881,787.97,881,754.06V245.94
		c0-33.91-13.2-65.78-37.18-89.76C819.84,132.2,787.97,119,754.06,119L754.06,119z"/>
</g>
<g>
	<g>
		<g>
			<g>
				<g>
					<g>
						<path class="st3" d="M512.56,286.53l-35.18,50.01c-5.53,7.79-14.57,12.56-24.37,12.56H261.28v-62.82
							C261.28,286.53,512.56,286.53,512.56,286.53z"/>
					</g>
					<g>
						<polygon class="st3" points="751.28,286.53 449.74,713.72 248.72,713.72 550.26,286.53 						"/>
					</g>
					<g>
						<path class="st3" d="M487.44,713.72l35.43-50.26c5.53-7.79,14.57-12.56,24.37-12.56h191.48v62.82H487.44z"/>
					</g>
				</g>
			</g>
		</g>
	</g>
</g>
</svg>
